<svg width="140" height="172" viewBox="0 0 140 172" fill="none" xmlns="http://www.w3.org/2000/svg">
<g filter="url(#filter0_d_259_32)">
<path d="M77.1716 163.22C61.7408 163.22 48.5856 159.951 37.7058 153.414C26.8261 146.876 18.4708 137.796 12.6398 126.174C6.87993 114.552 4 101.077 4 85.7505V80.3025C4 64.4672 6.87993 50.5205 12.6398 38.4624C18.3996 26.4043 26.5417 16.9976 37.0659 10.2421C47.6612 3.41406 60.1764 0 74.6116 0C85.7758 0 96.2644 1.56174 106.078 4.68523C115.891 7.80871 124.424 12.4939 131.677 18.7409V53.9345H108.637L104.264 32.6876C101.491 30.2179 97.7577 28.2566 93.0645 26.8038C88.3713 25.2784 83.0025 24.5157 76.9582 24.5157C68.2829 24.5157 60.7808 26.8765 54.4521 31.598C48.1945 36.2469 43.3946 42.7481 40.0525 51.1016C36.7103 59.3825 35.0392 69.0435 35.0392 80.0846V85.7505C35.0392 96.5011 36.6748 105.872 39.9458 113.862C43.2879 121.779 48.1589 127.917 54.5588 132.276C60.9586 136.634 68.8162 138.813 78.1315 138.813C83.607 138.813 88.6202 138.305 93.1712 137.288C97.7933 136.198 101.598 134.891 104.584 133.365V106.453L82.3981 104.709V82.3727H135.837V146.549C128.939 151.562 120.619 155.593 110.877 158.644C101.207 161.695 89.9712 163.22 77.1716 163.22Z" fill="#EDF6F9"/>
<path d="M77.1716 163.22C61.7408 163.22 48.5856 159.951 37.7058 153.414C26.8261 146.876 18.4708 137.796 12.6398 126.174C6.87993 114.552 4 101.077 4 85.7505V80.3025C4 64.4672 6.87993 50.5205 12.6398 38.4624C18.3996 26.4043 26.5417 16.9976 37.0659 10.2421C47.6612 3.41406 60.1764 0 74.6116 0C85.7758 0 96.2644 1.56174 106.078 4.68523C115.891 7.80871 124.424 12.4939 131.677 18.7409V53.9345H108.637L104.264 32.6876C101.491 30.2179 97.7577 28.2566 93.0645 26.8038C88.3713 25.2784 83.0025 24.5157 76.9582 24.5157C68.2829 24.5157 60.7808 26.8765 54.4521 31.598C48.1945 36.2469 43.3946 42.7481 40.0525 51.1016C36.7103 59.3825 35.0392 69.0435 35.0392 80.0846V85.7505C35.0392 96.5011 36.6748 105.872 39.9458 113.862C43.2879 121.779 48.1589 127.917 54.5588 132.276C60.9586 136.634 68.8162 138.813 78.1315 138.813C83.607 138.813 88.6202 138.305 93.1712 137.288C97.7933 136.198 101.598 134.891 104.584 133.365V106.453L82.3981 104.709V82.3727H135.837V146.549C128.939 151.562 120.619 155.593 110.877 158.644C101.207 161.695 89.9712 163.22 77.1716 163.22Z" fill="#EDF6F9"/>
<path d="M77.1716 163.22C61.7408 163.22 48.5856 159.951 37.7058 153.414C26.8261 146.876 18.4708 137.796 12.6398 126.174C6.87993 114.552 4 101.077 4 85.7505V80.3025C4 64.4672 6.87993 50.5205 12.6398 38.4624C18.3996 26.4043 26.5417 16.9976 37.0659 10.2421C47.6612 3.41406 60.1764 0 74.6116 0C85.7758 0 96.2644 1.56174 106.078 4.68523C115.891 7.80871 124.424 12.4939 131.677 18.7409V53.9345H108.637L104.264 32.6876C101.491 30.2179 97.7577 28.2566 93.0645 26.8038C88.3713 25.2784 83.0025 24.5157 76.9582 24.5157C68.2829 24.5157 60.7808 26.8765 54.4521 31.598C48.1945 36.2469 43.3946 42.7481 40.0525 51.1016C36.7103 59.3825 35.0392 69.0435 35.0392 80.0846V85.7505C35.0392 96.5011 36.6748 105.872 39.9458 113.862C43.2879 121.779 48.1589 127.917 54.5588 132.276C60.9586 136.634 68.8162 138.813 78.1315 138.813C83.607 138.813 88.6202 138.305 93.1712 137.288C97.7933 136.198 101.598 134.891 104.584 133.365V106.453L82.3981 104.709V82.3727H135.837V146.549C128.939 151.562 120.619 155.593 110.877 158.644C101.207 161.695 89.9712 163.22 77.1716 163.22Z" fill="#EDF6F9"/>
<path d="M77.1716 163.22C61.7408 163.22 48.5856 159.951 37.7058 153.414C26.8261 146.876 18.4708 137.796 12.6398 126.174C6.87993 114.552 4 101.077 4 85.7505V80.3025C4 64.4672 6.87993 50.5205 12.6398 38.4624C18.3996 26.4043 26.5417 16.9976 37.0659 10.2421C47.6612 3.41406 60.1764 0 74.6116 0C85.7758 0 96.2644 1.56174 106.078 4.68523C115.891 7.80871 124.424 12.4939 131.677 18.7409V53.9345H108.637L104.264 32.6876C101.491 30.2179 97.7577 28.2566 93.0645 26.8038C88.3713 25.2784 83.0025 24.5157 76.9582 24.5157C68.2829 24.5157 60.7808 26.8765 54.4521 31.598C48.1945 36.2469 43.3946 42.7481 40.0525 51.1016C36.7103 59.3825 35.0392 69.0435 35.0392 80.0846V85.7505C35.0392 96.5011 36.6748 105.872 39.9458 113.862C43.2879 121.779 48.1589 127.917 54.5588 132.276C60.9586 136.634 68.8162 138.813 78.1315 138.813C83.607 138.813 88.6202 138.305 93.1712 137.288C97.7933 136.198 101.598 134.891 104.584 133.365V106.453L82.3981 104.709V82.3727H135.837V146.549C128.939 151.562 120.619 155.593 110.877 158.644C101.207 161.695 89.9712 163.22 77.1716 163.22Z" fill="#EDF6F9"/>
</g>
<defs>
<filter id="filter0_d_259_32" x="0" y="0" width="139.837" height="171.22" filterUnits="userSpaceOnUse" color-interpolation-filters="sRGB">
<feFlood flood-opacity="0" result="BackgroundImageFix"/>
<feColorMatrix in="SourceAlpha" type="matrix" values="0 0 0 0 0 0 0 0 0 0 0 0 0 0 0 0 0 0 127 0" result="hardAlpha"/>
<feOffset dy="4"/>
<feGaussianBlur stdDeviation="2"/>
<feComposite in2="hardAlpha" operator="out"/>
<feColorMatrix type="matrix" values="0 0 0 0 0 0 0 0 0 0 0 0 0 0 0 0 0 0 0.25 0"/>
<feBlend mode="normal" in2="BackgroundImageFix" result="effect1_dropShadow_259_32"/>
<feBlend mode="normal" in="SourceGraphic" in2="effect1_dropShadow_259_32" result="shape"/>
</filter>
</defs>
</svg>
