<svg width="783" height="340" viewBox="0 0 783 340" fill="none" xmlns="http://www.w3.org/2000/svg">
    <g filter="url(#filter0_d_69_313)">
        <path d="M77.1716 331.685C61.7408 331.685 48.5856 328.417 37.7058 321.879C26.8261 315.342 18.4708 306.262 12.6398 294.639C6.87993 283.017 4 269.543 4 254.216V248.768C4 232.932 6.87993 218.986 12.6398 206.928C18.3996 194.87 26.5417 185.463 37.0659 178.707C47.6612 171.879 60.1764 168.465 74.6116 168.465C85.7758 168.465 96.2644 170.027 106.078 173.15C115.891 176.274 124.424 180.959 131.677 187.206V222.4H108.637L104.264 201.153C101.491 198.683 97.7577 196.722 93.0645 195.269C88.3713 193.744 83.0025 192.981 76.9582 192.981C68.2829 192.981 60.7808 195.342 54.4521 200.063C48.1945 204.712 43.3946 211.213 40.0525 219.567C36.7103 227.848 35.0392 237.509 35.0392 248.55V254.216C35.0392 264.966 36.6748 274.337 39.9458 282.327C43.2879 290.245 48.1589 296.383 54.5588 300.741C60.9586 305.099 68.8162 307.279 78.1315 307.279C83.607 307.279 88.6202 306.77 93.1712 305.753C97.7933 304.664 101.598 303.356 104.584 301.831V274.918L82.3981 273.174V250.838H135.837V315.015C128.939 320.027 120.619 324.058 110.877 327.109C101.207 330.16 89.9712 331.685 77.1716 331.685Z"
              fill="#EDF6F9"/>
        <path d="M151.516 329.397V310.329L168.049 307.061V193.199L151.516 189.93V170.753H225.115C237.061 170.753 247.301 172.642 255.834 176.419C264.367 180.196 270.909 185.608 275.46 192.654C280.082 199.7 282.393 208.162 282.393 218.041C282.393 227.339 280.118 235.656 275.567 242.993C271.016 250.329 264.687 256.104 256.581 260.317C248.474 264.53 239.123 266.673 228.528 266.746H199.195V307.061L215.835 310.329V329.397H151.516ZM251.461 329.397L225.328 260.862L253.381 253.78L275.993 307.17L289.22 310.329V329.397H251.461ZM199.195 242.23H224.581C233.541 242.23 240.225 240.305 244.634 236.455C249.114 232.533 251.354 226.867 251.354 219.458C251.354 212.121 249.15 206.274 244.741 201.916C240.332 197.485 233.79 195.269 225.115 195.269H199.195V242.23Z"
              fill="#EDF6F9"/>
        <path d="M372.844 331.685C362.391 331.685 352.863 329.688 344.258 325.693C335.654 321.697 328.223 316.104 321.966 308.913C315.779 301.649 311.015 293.15 307.673 283.417C304.33 273.61 302.659 262.896 302.659 251.274V248.877C302.659 237.327 304.33 226.685 307.673 216.952C311.015 207.146 315.779 198.61 321.966 191.347C328.152 184.083 335.547 178.453 344.152 174.458C352.756 170.463 362.285 168.465 372.738 168.465C383.262 168.465 392.862 170.463 401.537 174.458C410.212 178.453 417.679 184.083 423.936 191.347C430.194 198.61 434.994 207.146 438.336 216.952C441.749 226.685 443.456 237.327 443.456 248.877V251.274C443.456 262.896 441.749 273.61 438.336 283.417C434.994 293.15 430.194 301.649 423.936 308.913C417.679 316.104 410.212 321.697 401.537 325.693C392.933 329.688 383.369 331.685 372.844 331.685ZM372.844 306.952C381.662 306.952 388.986 304.627 394.817 299.978C400.648 295.329 405.021 288.828 407.937 280.475C410.923 272.121 412.417 262.388 412.417 251.274V248.659C412.417 237.69 410.923 228.066 407.937 219.785C404.95 211.431 400.506 204.93 394.604 200.281C388.773 195.632 381.484 193.308 372.738 193.308C364.062 193.308 356.845 195.632 351.085 200.281C345.325 204.857 340.987 211.286 338.072 219.567C335.228 227.848 333.805 237.545 333.805 248.659V251.274C333.805 262.388 335.228 272.121 338.072 280.475C340.987 288.828 345.325 295.329 351.085 299.978C356.916 304.627 364.169 306.952 372.844 306.952Z"
              fill="#EDF6F9"/>
        <path d="M505.445 327.109L469.393 189.276L453.5 187.642V168.465H516.005V187.642L499.259 190.148L517.498 267.291L520.805 281.455H521.445L525.392 267.291L556.111 168.465H579.044L610.936 270.015L614.669 282.545H615.309L621.245 270.015L674.765 149.764L721.731 46L744.668 61.6203L721.731 117.407L694.425 176.419L629.709 327.109H601.55L572.11 234.385L568.377 221.31H567.737L563.577 234.821L533.818 327.109H505.445Z"
              fill="#EDF6F9"/>
        <path d="M77.1716 331.685C61.7408 331.685 48.5856 328.417 37.7058 321.879C26.8261 315.342 18.4708 306.262 12.6398 294.639C6.87993 283.017 4 269.543 4 254.216V248.768C4 232.932 6.87993 218.986 12.6398 206.928C18.3996 194.87 26.5417 185.463 37.0659 178.707C47.6612 171.879 60.1764 168.465 74.6116 168.465C85.7758 168.465 96.2644 170.027 106.078 173.15C115.891 176.274 124.424 180.959 131.677 187.206V222.4H108.637L104.264 201.153C101.491 198.683 97.7577 196.722 93.0645 195.269C88.3713 193.744 83.0025 192.981 76.9582 192.981C68.2829 192.981 60.7808 195.342 54.4521 200.063C48.1945 204.712 43.3946 211.213 40.0525 219.567C36.7103 227.848 35.0392 237.509 35.0392 248.55V254.216C35.0392 264.966 36.6748 274.337 39.9458 282.327C43.2879 290.245 48.1589 296.383 54.5588 300.741C60.9586 305.099 68.8162 307.279 78.1315 307.279C83.607 307.279 88.6202 306.77 93.1712 305.753C97.7933 304.664 101.598 303.356 104.584 301.831V274.918L82.3981 273.174V250.838H135.837V315.015C128.939 320.027 120.619 324.058 110.877 327.109C101.207 330.16 89.9712 331.685 77.1716 331.685Z"
              fill="#EDF6F9"/>
        <path d="M151.516 329.397V310.329L168.049 307.061V193.199L151.516 189.93V170.753H225.115C237.061 170.753 247.301 172.642 255.834 176.419C264.367 180.196 270.909 185.608 275.46 192.654C280.082 199.7 282.393 208.162 282.393 218.041C282.393 227.339 280.118 235.656 275.567 242.993C271.016 250.329 264.687 256.104 256.581 260.317C248.474 264.53 239.123 266.673 228.528 266.746H199.195V307.061L215.835 310.329V329.397H151.516ZM251.461 329.397L225.328 260.862L253.381 253.78L275.993 307.17L289.22 310.329V329.397H251.461ZM199.195 242.23H224.581C233.541 242.23 240.225 240.305 244.634 236.455C249.114 232.533 251.354 226.867 251.354 219.458C251.354 212.121 249.15 206.274 244.741 201.916C240.332 197.485 233.79 195.269 225.115 195.269H199.195V242.23Z"
              fill="#EDF6F9"/>
        <path d="M372.844 331.685C362.391 331.685 352.863 329.688 344.258 325.693C335.654 321.697 328.223 316.104 321.966 308.913C315.779 301.649 311.015 293.15 307.673 283.417C304.33 273.61 302.659 262.896 302.659 251.274V248.877C302.659 237.327 304.33 226.685 307.673 216.952C311.015 207.146 315.779 198.61 321.966 191.347C328.152 184.083 335.547 178.453 344.152 174.458C352.756 170.463 362.285 168.465 372.738 168.465C383.262 168.465 392.862 170.463 401.537 174.458C410.212 178.453 417.679 184.083 423.936 191.347C430.194 198.61 434.994 207.146 438.336 216.952C441.749 226.685 443.456 237.327 443.456 248.877V251.274C443.456 262.896 441.749 273.61 438.336 283.417C434.994 293.15 430.194 301.649 423.936 308.913C417.679 316.104 410.212 321.697 401.537 325.693C392.933 329.688 383.369 331.685 372.844 331.685ZM372.844 306.952C381.662 306.952 388.986 304.627 394.817 299.978C400.648 295.329 405.021 288.828 407.937 280.475C410.923 272.121 412.417 262.388 412.417 251.274V248.659C412.417 237.69 410.923 228.066 407.937 219.785C404.95 211.431 400.506 204.93 394.604 200.281C388.773 195.632 381.484 193.308 372.738 193.308C364.062 193.308 356.845 195.632 351.085 200.281C345.325 204.857 340.987 211.286 338.072 219.567C335.228 227.848 333.805 237.545 333.805 248.659V251.274C333.805 262.388 335.228 272.121 338.072 280.475C340.987 288.828 345.325 295.329 351.085 299.978C356.916 304.627 364.169 306.952 372.844 306.952Z"
              fill="#EDF6F9"/>
        <path d="M505.445 327.109L469.393 189.276L453.5 187.642V168.465H516.005V187.642L499.259 190.148L517.498 267.291L520.805 281.455H521.445L525.392 267.291L556.111 168.465H579.044L610.936 270.015L614.669 282.545H615.309L621.245 270.015L674.765 149.764L721.731 46L744.668 61.6203L721.731 117.407L694.425 176.419L629.709 327.109H601.55L572.11 234.385L568.377 221.31H567.737L563.577 234.821L533.818 327.109H505.445Z"
              fill="#EDF6F9"/>
    </g>
    <path d="M755.257 16.1538L758.42 73L704.265 41.4792L755.257 16.1538Z" fill="#EDF6F9"/>
    <defs>
        <filter id="filter0_d_69_313" x="0" y="46" width="748.668" height="293.685" filterUnits="userSpaceOnUse"
                color-interpolation-filters="sRGB">
            <feFlood flood-opacity="0" result="BackgroundImageFix"/>
            <feColorMatrix in="SourceAlpha" type="matrix" values="0 0 0 0 0 0 0 0 0 0 0 0 0 0 0 0 0 0 127 0"
                           result="hardAlpha"/>
            <feOffset dy="4"/>
            <feGaussianBlur stdDeviation="2"/>
            <feComposite in2="hardAlpha" operator="out"/>
            <feColorMatrix type="matrix" values="0 0 0 0 0 0 0 0 0 0 0 0 0 0 0 0 0 0 0.25 0"/>
            <feBlend mode="normal" in2="BackgroundImageFix" result="effect1_dropShadow_69_313"/>
            <feBlend mode="normal" in="SourceGraphic" in2="effect1_dropShadow_69_313" result="shape"/>
        </filter>
    </defs>
</svg>
