<svg width="783" height="340" viewBox="0 0 783 340" fill="none" xmlns="http://www.w3.org/2000/svg">
<g filter="url(#filter0_d_228_42)">
<path d="M77.1716 331.292C61.7408 331.292 48.5856 328.023 37.7058 321.486C26.8261 314.948 18.4708 305.868 12.6398 294.246C6.87993 282.624 4 269.149 4 253.822V248.374C4 232.539 6.87993 218.592 12.6398 206.534C18.3996 194.476 26.5417 185.069 37.0659 178.314C47.6612 171.486 60.1764 168.072 74.6116 168.072C85.7758 168.072 96.2644 169.633 106.078 172.757C115.891 175.88 124.424 180.566 131.677 186.813V222.006H108.637L104.264 200.759C101.491 198.29 97.7577 196.328 93.0645 194.876C88.3713 193.35 83.0025 192.587 76.9582 192.587C68.2829 192.587 60.7808 194.948 54.4521 199.67C48.1945 204.319 43.3946 210.82 40.0525 219.173C36.7103 227.454 35.0392 237.115 35.0392 248.156V253.822C35.0392 264.573 36.6748 273.943 39.9458 281.934C43.2879 289.851 48.1589 295.989 54.5588 300.348C60.9586 304.706 68.8162 306.885 78.1315 306.885C83.607 306.885 88.6202 306.377 93.1712 305.36C97.7933 304.27 101.598 302.963 104.584 301.437V274.524L82.3981 272.781V250.444H135.837V314.621C128.939 319.633 120.619 323.665 110.877 326.716C101.207 329.766 89.9712 331.292 77.1716 331.292Z" fill="url(#paint0_radial_228_42)" fill-opacity="0.6" shape-rendering="crispEdges"/>
<path d="M151.516 329.004V309.936L168.049 306.667V192.805L151.516 189.537V170.36H225.115C237.061 170.36 247.301 172.248 255.834 176.026C264.367 179.803 270.909 185.215 275.46 192.261C280.082 199.307 282.393 207.769 282.393 217.648C282.393 226.946 280.118 235.263 275.567 242.599C271.016 249.936 264.687 255.711 256.581 259.924C248.474 264.137 239.123 266.28 228.528 266.352H199.195V306.667L215.835 309.936V329.004H151.516ZM251.461 329.004L225.328 260.469L253.381 253.386L275.993 306.776L289.22 309.936V329.004H251.461ZM199.195 241.837H224.581C233.541 241.837 240.225 239.912 244.634 236.062C249.114 232.139 251.354 226.474 251.354 219.064C251.354 211.728 249.15 205.88 244.741 201.522C240.332 197.091 233.79 194.876 225.115 194.876H199.195V241.837Z" fill="url(#paint1_radial_228_42)" fill-opacity="0.6" shape-rendering="crispEdges"/>
<path d="M372.844 331.292C362.391 331.292 352.863 329.294 344.258 325.299C335.654 321.304 328.223 315.711 321.966 308.519C315.779 301.256 311.015 292.757 307.673 283.023C304.33 273.217 302.659 262.503 302.659 250.88V248.483C302.659 236.934 304.33 226.292 307.673 216.558C311.015 206.752 315.779 198.217 321.966 190.953C328.152 183.689 335.547 178.06 344.152 174.064C352.756 170.069 362.285 168.072 372.738 168.072C383.262 168.072 392.862 170.069 401.537 174.064C410.212 178.06 417.679 183.689 423.936 190.953C430.194 198.217 434.994 206.752 438.336 216.558C441.749 226.292 443.456 236.934 443.456 248.483V250.88C443.456 262.503 441.749 273.217 438.336 283.023C434.994 292.757 430.194 301.256 423.936 308.519C417.679 315.711 410.212 321.304 401.537 325.299C392.933 329.294 383.369 331.292 372.844 331.292ZM372.844 306.558C381.662 306.558 388.986 304.234 394.817 299.585C400.648 294.936 405.021 288.435 407.937 280.081C410.923 271.728 412.417 261.994 412.417 250.88V248.265C412.417 237.297 410.923 227.672 407.937 219.391C404.95 211.038 400.506 204.537 394.604 199.888C388.773 195.239 381.484 192.914 372.738 192.914C364.062 192.914 356.845 195.239 351.085 199.888C345.325 204.464 340.987 210.893 338.072 219.173C335.227 227.454 333.805 237.152 333.805 248.265V250.88C333.805 261.994 335.227 271.728 338.072 280.081C340.987 288.435 345.325 294.936 351.085 299.585C356.916 304.234 364.169 306.558 372.844 306.558Z" fill="url(#paint2_radial_228_42)" fill-opacity="0.6" shape-rendering="crispEdges"/>
<path d="M505.445 326.716L469.393 188.883L453.5 187.248V168.072H516.005V187.248L499.259 189.755L517.498 266.897L520.805 281.062H521.445L525.392 266.897L556.111 168.072H579.044L610.936 269.621L614.669 282.151H615.309L621.245 269.621L674.765 149.37L721.731 45.6066L744.668 61.2269L721.731 117.014L694.425 176.026L629.709 326.716H601.55L572.11 233.992L568.377 220.917H567.737L563.577 234.428L533.818 326.716H505.445Z" fill="url(#paint3_radial_228_42)" fill-opacity="0.6" shape-rendering="crispEdges"/>
<path d="M77.1716 331.292C61.7408 331.292 48.5856 328.023 37.7058 321.486C26.8261 314.948 18.4708 305.868 12.6398 294.246C6.87993 282.624 4 269.149 4 253.822V248.374C4 232.539 6.87993 218.592 12.6398 206.534C18.3996 194.476 26.5417 185.069 37.0659 178.314C47.6612 171.486 60.1764 168.072 74.6116 168.072C85.7758 168.072 96.2644 169.633 106.078 172.757C115.891 175.88 124.424 180.566 131.677 186.813V222.006H108.637L104.264 200.759C101.491 198.29 97.7577 196.328 93.0645 194.876C88.3713 193.35 83.0025 192.587 76.9582 192.587C68.2829 192.587 60.7808 194.948 54.4521 199.67C48.1945 204.319 43.3946 210.82 40.0525 219.173C36.7103 227.454 35.0392 237.115 35.0392 248.156V253.822C35.0392 264.573 36.6748 273.943 39.9458 281.934C43.2879 289.851 48.1589 295.989 54.5588 300.348C60.9586 304.706 68.8162 306.885 78.1315 306.885C83.607 306.885 88.6202 306.377 93.1712 305.36C97.7933 304.27 101.598 302.963 104.584 301.437V274.524L82.3981 272.781V250.444H135.837V314.621C128.939 319.633 120.619 323.665 110.877 326.716C101.207 329.766 89.9712 331.292 77.1716 331.292Z" fill="url(#paint4_radial_228_42)" fill-opacity="0.6" shape-rendering="crispEdges"/>
<path d="M151.516 329.004V309.936L168.049 306.667V192.805L151.516 189.537V170.36H225.115C237.061 170.36 247.301 172.248 255.834 176.026C264.367 179.803 270.909 185.215 275.46 192.261C280.082 199.307 282.393 207.769 282.393 217.648C282.393 226.946 280.118 235.263 275.567 242.599C271.016 249.936 264.687 255.711 256.581 259.924C248.474 264.137 239.123 266.28 228.528 266.352H199.195V306.667L215.835 309.936V329.004H151.516ZM251.461 329.004L225.328 260.469L253.381 253.386L275.993 306.776L289.22 309.936V329.004H251.461ZM199.195 241.837H224.581C233.541 241.837 240.225 239.912 244.634 236.062C249.114 232.139 251.354 226.474 251.354 219.064C251.354 211.728 249.15 205.88 244.741 201.522C240.332 197.091 233.79 194.876 225.115 194.876H199.195V241.837Z" fill="url(#paint5_radial_228_42)" fill-opacity="0.6" shape-rendering="crispEdges"/>
<path d="M372.844 331.292C362.391 331.292 352.863 329.294 344.258 325.299C335.654 321.304 328.223 315.711 321.966 308.519C315.779 301.256 311.015 292.757 307.673 283.023C304.33 273.217 302.659 262.503 302.659 250.88V248.483C302.659 236.934 304.33 226.292 307.673 216.558C311.015 206.752 315.779 198.217 321.966 190.953C328.152 183.689 335.547 178.06 344.152 174.064C352.756 170.069 362.285 168.072 372.738 168.072C383.262 168.072 392.862 170.069 401.537 174.064C410.212 178.06 417.679 183.689 423.936 190.953C430.194 198.217 434.994 206.752 438.336 216.558C441.749 226.292 443.456 236.934 443.456 248.483V250.88C443.456 262.503 441.749 273.217 438.336 283.023C434.994 292.757 430.194 301.256 423.936 308.519C417.679 315.711 410.212 321.304 401.537 325.299C392.933 329.294 383.369 331.292 372.844 331.292ZM372.844 306.558C381.662 306.558 388.986 304.234 394.817 299.585C400.648 294.936 405.021 288.435 407.937 280.081C410.923 271.728 412.417 261.994 412.417 250.88V248.265C412.417 237.297 410.923 227.672 407.937 219.391C404.95 211.038 400.506 204.537 394.604 199.888C388.773 195.239 381.484 192.914 372.738 192.914C364.062 192.914 356.845 195.239 351.085 199.888C345.325 204.464 340.987 210.893 338.072 219.173C335.227 227.454 333.805 237.152 333.805 248.265V250.88C333.805 261.994 335.227 271.728 338.072 280.081C340.987 288.435 345.325 294.936 351.085 299.585C356.916 304.234 364.169 306.558 372.844 306.558Z" fill="url(#paint6_radial_228_42)" fill-opacity="0.6" shape-rendering="crispEdges"/>
<path d="M505.445 326.716L469.393 188.883L453.5 187.248V168.072H516.005V187.248L499.259 189.755L517.498 266.897L520.805 281.062H521.445L525.392 266.897L556.111 168.072H579.044L610.936 269.621L614.669 282.151H615.309L621.245 269.621L674.765 149.37L721.731 45.6066L744.668 61.2269L721.731 117.014L694.425 176.026L629.709 326.716H601.55L572.11 233.992L568.377 220.917H567.737L563.577 234.428L533.818 326.716H505.445Z" fill="url(#paint7_radial_228_42)" fill-opacity="0.6" shape-rendering="crispEdges"/>
</g>
<path d="M755.257 15.7604L758.42 72.6066L704.265 41.0858L755.257 15.7604Z" fill="url(#paint8_radial_228_42)" fill-opacity="0.6"/>
<defs>
<filter id="filter0_d_228_42" x="0" y="45.6066" width="748.668" height="293.685" filterUnits="userSpaceOnUse" color-interpolation-filters="sRGB">
<feFlood flood-opacity="0" result="BackgroundImageFix"/>
<feColorMatrix in="SourceAlpha" type="matrix" values="0 0 0 0 0 0 0 0 0 0 0 0 0 0 0 0 0 0 127 0" result="hardAlpha"/>
<feOffset dy="4"/>
<feGaussianBlur stdDeviation="2"/>
<feComposite in2="hardAlpha" operator="out"/>
<feColorMatrix type="matrix" values="0 0 0 0 0 0 0 0 0 0 0 0 0 0 0 0 0 0 0.25 0"/>
<feBlend mode="normal" in2="BackgroundImageFix" result="effect1_dropShadow_228_42"/>
<feBlend mode="normal" in="SourceGraphic" in2="effect1_dropShadow_228_42" result="shape"/>
</filter>
<radialGradient id="paint0_radial_228_42" cx="0" cy="0" r="1" gradientUnits="userSpaceOnUse" gradientTransform="translate(334.207 -127.292) rotate(89.4916) scale(589.862 1529.26)">
<stop stop-color="#E29578"/>
<stop offset="1" stop-color="#E29578" stop-opacity="0"/>
</radialGradient>
<radialGradient id="paint1_radial_228_42" cx="0" cy="0" r="1" gradientUnits="userSpaceOnUse" gradientTransform="translate(334.207 -127.292) rotate(89.4916) scale(589.862 1529.26)">
<stop stop-color="#E29578"/>
<stop offset="1" stop-color="#E29578" stop-opacity="0"/>
</radialGradient>
<radialGradient id="paint2_radial_228_42" cx="0" cy="0" r="1" gradientUnits="userSpaceOnUse" gradientTransform="translate(334.207 -127.292) rotate(89.4916) scale(589.862 1529.26)">
<stop stop-color="#E29578"/>
<stop offset="1" stop-color="#E29578" stop-opacity="0"/>
</radialGradient>
<radialGradient id="paint3_radial_228_42" cx="0" cy="0" r="1" gradientUnits="userSpaceOnUse" gradientTransform="translate(334.207 -127.292) rotate(89.4916) scale(589.862 1529.26)">
<stop stop-color="#E29578"/>
<stop offset="1" stop-color="#E29578" stop-opacity="0"/>
</radialGradient>
<radialGradient id="paint4_radial_228_42" cx="0" cy="0" r="1" gradientUnits="userSpaceOnUse" gradientTransform="translate(334.207 -127.292) rotate(89.4916) scale(589.862 1529.26)">
<stop stop-color="#E29578"/>
<stop offset="1" stop-color="#E29578" stop-opacity="0"/>
</radialGradient>
<radialGradient id="paint5_radial_228_42" cx="0" cy="0" r="1" gradientUnits="userSpaceOnUse" gradientTransform="translate(334.207 -127.292) rotate(89.4916) scale(589.862 1529.26)">
<stop stop-color="#E29578"/>
<stop offset="1" stop-color="#E29578" stop-opacity="0"/>
</radialGradient>
<radialGradient id="paint6_radial_228_42" cx="0" cy="0" r="1" gradientUnits="userSpaceOnUse" gradientTransform="translate(334.207 -127.292) rotate(89.4916) scale(589.862 1529.26)">
<stop stop-color="#E29578"/>
<stop offset="1" stop-color="#E29578" stop-opacity="0"/>
</radialGradient>
<radialGradient id="paint7_radial_228_42" cx="0" cy="0" r="1" gradientUnits="userSpaceOnUse" gradientTransform="translate(334.207 -127.292) rotate(89.4916) scale(589.862 1529.26)">
<stop stop-color="#E29578"/>
<stop offset="1" stop-color="#E29578" stop-opacity="0"/>
</radialGradient>
<radialGradient id="paint8_radial_228_42" cx="0" cy="0" r="1" gradientUnits="userSpaceOnUse" gradientTransform="translate(648 36) rotate(38.0298) scale(568.116 748.866)">
<stop stop-color="#E29578"/>
<stop offset="1" stop-color="#E29578" stop-opacity="0"/>
</radialGradient>
</defs>
</svg>
