<svg width="150" height="172" viewBox="0 0 150 172" fill="none" xmlns="http://www.w3.org/2000/svg">
<g filter="url(#filter0_d_262_34)">
<path d="M74.8444 163.22C64.3913 163.22 54.8627 161.223 46.2584 157.227C37.6542 153.232 30.2233 147.639 23.9656 140.448C17.7791 133.184 13.0148 124.685 9.67264 114.951C6.3305 105.145 4.65942 94.4309 4.65942 82.8086V80.4115C4.65942 68.8619 6.3305 58.2203 9.67264 48.4866C13.0148 38.6803 17.7791 30.1452 23.9656 22.8813C30.1522 15.6174 37.5475 9.9879 46.1518 5.99274C54.756 1.99759 64.2847 0 74.7377 0C85.2619 0 94.8617 1.99759 103.537 5.99274C112.212 9.9879 119.679 15.6174 125.936 22.8813C132.194 30.1452 136.994 38.6803 140.336 48.4866C143.749 58.2203 145.456 68.8619 145.456 80.4115V82.8086C145.456 94.4309 143.749 105.145 140.336 114.951C136.994 124.685 132.194 133.184 125.936 140.448C119.679 147.639 112.212 153.232 103.537 157.227C94.9328 161.223 85.3686 163.22 74.8444 163.22ZM74.8444 138.486C83.662 138.486 90.9862 136.162 96.8172 131.513C102.648 126.864 107.021 120.363 109.937 112.01C112.923 103.656 114.417 93.9224 114.417 82.8086V80.1936C114.417 69.2251 112.923 59.6004 109.937 51.3195C106.95 42.966 102.506 36.4648 96.6039 31.8159C90.7729 27.167 83.4842 24.8426 74.7377 24.8426C66.0624 24.8426 58.8448 27.167 53.0849 31.8159C47.3251 36.3922 42.9874 42.8208 40.0719 51.1016C37.2275 59.3825 35.8053 69.0798 35.8053 80.1936V82.8086C35.8053 93.9224 37.2275 103.656 40.0719 112.01C42.9874 120.363 47.3251 126.864 53.0849 131.513C58.9159 136.162 66.169 138.486 74.8444 138.486Z" fill="#EDF6F9"/>
<path d="M74.8444 163.22C64.3913 163.22 54.8627 161.223 46.2584 157.227C37.6542 153.232 30.2233 147.639 23.9656 140.448C17.7791 133.184 13.0148 124.685 9.67264 114.951C6.3305 105.145 4.65942 94.4309 4.65942 82.8086V80.4115C4.65942 68.8619 6.3305 58.2203 9.67264 48.4866C13.0148 38.6803 17.7791 30.1452 23.9656 22.8813C30.1522 15.6174 37.5475 9.9879 46.1518 5.99274C54.756 1.99759 64.2847 0 74.7377 0C85.2619 0 94.8617 1.99759 103.537 5.99274C112.212 9.9879 119.679 15.6174 125.936 22.8813C132.194 30.1452 136.994 38.6803 140.336 48.4866C143.749 58.2203 145.456 68.8619 145.456 80.4115V82.8086C145.456 94.4309 143.749 105.145 140.336 114.951C136.994 124.685 132.194 133.184 125.936 140.448C119.679 147.639 112.212 153.232 103.537 157.227C94.9328 161.223 85.3686 163.22 74.8444 163.22ZM74.8444 138.486C83.662 138.486 90.9862 136.162 96.8172 131.513C102.648 126.864 107.021 120.363 109.937 112.01C112.923 103.656 114.417 93.9224 114.417 82.8086V80.1936C114.417 69.2251 112.923 59.6004 109.937 51.3195C106.95 42.966 102.506 36.4648 96.6039 31.8159C90.7729 27.167 83.4842 24.8426 74.7377 24.8426C66.0624 24.8426 58.8448 27.167 53.0849 31.8159C47.3251 36.3922 42.9874 42.8208 40.0719 51.1016C37.2275 59.3825 35.8053 69.0798 35.8053 80.1936V82.8086C35.8053 93.9224 37.2275 103.656 40.0719 112.01C42.9874 120.363 47.3251 126.864 53.0849 131.513C58.9159 136.162 66.169 138.486 74.8444 138.486Z" fill="#EDF6F9"/>
<path d="M74.8444 163.22C64.3913 163.22 54.8627 161.223 46.2584 157.227C37.6542 153.232 30.2233 147.639 23.9656 140.448C17.7791 133.184 13.0148 124.685 9.67264 114.951C6.3305 105.145 4.65942 94.4309 4.65942 82.8086V80.4115C4.65942 68.8619 6.3305 58.2203 9.67264 48.4866C13.0148 38.6803 17.7791 30.1452 23.9656 22.8813C30.1522 15.6174 37.5475 9.9879 46.1518 5.99274C54.756 1.99759 64.2847 0 74.7377 0C85.2619 0 94.8617 1.99759 103.537 5.99274C112.212 9.9879 119.679 15.6174 125.936 22.8813C132.194 30.1452 136.994 38.6803 140.336 48.4866C143.749 58.2203 145.456 68.8619 145.456 80.4115V82.8086C145.456 94.4309 143.749 105.145 140.336 114.951C136.994 124.685 132.194 133.184 125.936 140.448C119.679 147.639 112.212 153.232 103.537 157.227C94.9328 161.223 85.3686 163.22 74.8444 163.22ZM74.8444 138.486C83.662 138.486 90.9862 136.162 96.8172 131.513C102.648 126.864 107.021 120.363 109.937 112.01C112.923 103.656 114.417 93.9224 114.417 82.8086V80.1936C114.417 69.2251 112.923 59.6004 109.937 51.3195C106.95 42.966 102.506 36.4648 96.6039 31.8159C90.7729 27.167 83.4842 24.8426 74.7377 24.8426C66.0624 24.8426 58.8448 27.167 53.0849 31.8159C47.3251 36.3922 42.9874 42.8208 40.0719 51.1016C37.2275 59.3825 35.8053 69.0798 35.8053 80.1936V82.8086C35.8053 93.9224 37.2275 103.656 40.0719 112.01C42.9874 120.363 47.3251 126.864 53.0849 131.513C58.9159 136.162 66.169 138.486 74.8444 138.486Z" fill="#EDF6F9"/>
<path d="M74.8444 163.22C64.3913 163.22 54.8627 161.223 46.2584 157.227C37.6542 153.232 30.2233 147.639 23.9656 140.448C17.7791 133.184 13.0148 124.685 9.67264 114.951C6.3305 105.145 4.65942 94.4309 4.65942 82.8086V80.4115C4.65942 68.8619 6.3305 58.2203 9.67264 48.4866C13.0148 38.6803 17.7791 30.1452 23.9656 22.8813C30.1522 15.6174 37.5475 9.9879 46.1518 5.99274C54.756 1.99759 64.2847 0 74.7377 0C85.2619 0 94.8617 1.99759 103.537 5.99274C112.212 9.9879 119.679 15.6174 125.936 22.8813C132.194 30.1452 136.994 38.6803 140.336 48.4866C143.749 58.2203 145.456 68.8619 145.456 80.4115V82.8086C145.456 94.4309 143.749 105.145 140.336 114.951C136.994 124.685 132.194 133.184 125.936 140.448C119.679 147.639 112.212 153.232 103.537 157.227C94.9328 161.223 85.3686 163.22 74.8444 163.22ZM74.8444 138.486C83.662 138.486 90.9862 136.162 96.8172 131.513C102.648 126.864 107.021 120.363 109.937 112.01C112.923 103.656 114.417 93.9224 114.417 82.8086V80.1936C114.417 69.2251 112.923 59.6004 109.937 51.3195C106.95 42.966 102.506 36.4648 96.6039 31.8159C90.7729 27.167 83.4842 24.8426 74.7377 24.8426C66.0624 24.8426 58.8448 27.167 53.0849 31.8159C47.3251 36.3922 42.9874 42.8208 40.0719 51.1016C37.2275 59.3825 35.8053 69.0798 35.8053 80.1936V82.8086C35.8053 93.9224 37.2275 103.656 40.0719 112.01C42.9874 120.363 47.3251 126.864 53.0849 131.513C58.9159 136.162 66.169 138.486 74.8444 138.486Z" fill="#EDF6F9"/>
</g>
<defs>
<filter id="filter0_d_262_34" x="0.659424" y="0" width="148.797" height="171.22" filterUnits="userSpaceOnUse" color-interpolation-filters="sRGB">
<feFlood flood-opacity="0" result="BackgroundImageFix"/>
<feColorMatrix in="SourceAlpha" type="matrix" values="0 0 0 0 0 0 0 0 0 0 0 0 0 0 0 0 0 0 127 0" result="hardAlpha"/>
<feOffset dy="4"/>
<feGaussianBlur stdDeviation="2"/>
<feComposite in2="hardAlpha" operator="out"/>
<feColorMatrix type="matrix" values="0 0 0 0 0 0 0 0 0 0 0 0 0 0 0 0 0 0 0.25 0"/>
<feBlend mode="normal" in2="BackgroundImageFix" result="effect1_dropShadow_262_34"/>
<feBlend mode="normal" in="SourceGraphic" in2="effect1_dropShadow_262_34" result="shape"/>
</filter>
</defs>
</svg>
