<svg width="147" height="167" viewBox="0 0 147 167" fill="none" xmlns="http://www.w3.org/2000/svg">
<g filter="url(#filter0_d_261_33)">
<path d="M4.51636 158.932V139.864L21.0493 136.595V22.7336L4.51636 19.4649V0.288147H78.1146C90.0609 0.288147 100.301 2.17675 108.834 5.95399C117.367 9.73122 123.909 15.1428 128.46 22.1888C133.082 29.2348 135.393 37.6973 135.393 47.5762C135.393 56.874 133.118 65.1912 128.567 72.5277C124.016 79.8643 117.687 85.6391 109.58 89.8521C101.474 94.0652 92.1231 96.2081 81.5278 96.2807H52.1952V136.595L68.8348 139.864V158.932H4.51636ZM104.461 158.932L78.3279 90.3969L106.381 83.3146L128.993 136.704L142.22 139.864V158.932H104.461ZM52.1952 71.765H77.5812C86.541 71.765 93.2253 69.8401 97.6341 65.9902C102.114 62.0677 104.354 56.4018 104.354 48.9927C104.354 41.6561 102.15 35.8087 97.7408 31.4503C93.332 27.0193 86.7899 24.8038 78.1146 24.8038H52.1952V71.765Z" fill="#EDF6F9"/>
<path d="M4.51636 158.932V139.864L21.0493 136.595V22.7336L4.51636 19.4649V0.288147H78.1146C90.0609 0.288147 100.301 2.17675 108.834 5.95399C117.367 9.73122 123.909 15.1428 128.46 22.1888C133.082 29.2348 135.393 37.6973 135.393 47.5762C135.393 56.874 133.118 65.1912 128.567 72.5277C124.016 79.8643 117.687 85.6391 109.58 89.8521C101.474 94.0652 92.1231 96.2081 81.5278 96.2807H52.1952V136.595L68.8348 139.864V158.932H4.51636ZM104.461 158.932L78.3279 90.3969L106.381 83.3146L128.993 136.704L142.22 139.864V158.932H104.461ZM52.1952 71.765H77.5812C86.541 71.765 93.2253 69.8401 97.6341 65.9902C102.114 62.0677 104.354 56.4018 104.354 48.9927C104.354 41.6561 102.15 35.8087 97.7408 31.4503C93.332 27.0193 86.7899 24.8038 78.1146 24.8038H52.1952V71.765Z" fill="#EDF6F9"/>
<path d="M4.51636 158.932V139.864L21.0493 136.595V22.7336L4.51636 19.4649V0.288147H78.1146C90.0609 0.288147 100.301 2.17675 108.834 5.95399C117.367 9.73122 123.909 15.1428 128.46 22.1888C133.082 29.2348 135.393 37.6973 135.393 47.5762C135.393 56.874 133.118 65.1912 128.567 72.5277C124.016 79.8643 117.687 85.6391 109.58 89.8521C101.474 94.0652 92.1231 96.2081 81.5278 96.2807H52.1952V136.595L68.8348 139.864V158.932H4.51636ZM104.461 158.932L78.3279 90.3969L106.381 83.3146L128.993 136.704L142.22 139.864V158.932H104.461ZM52.1952 71.765H77.5812C86.541 71.765 93.2253 69.8401 97.6341 65.9902C102.114 62.0677 104.354 56.4018 104.354 48.9927C104.354 41.6561 102.15 35.8087 97.7408 31.4503C93.332 27.0193 86.7899 24.8038 78.1146 24.8038H52.1952V71.765Z" fill="#EDF6F9"/>
<path d="M4.51636 158.932V139.864L21.0493 136.595V22.7336L4.51636 19.4649V0.288147H78.1146C90.0609 0.288147 100.301 2.17675 108.834 5.95399C117.367 9.73122 123.909 15.1428 128.46 22.1888C133.082 29.2348 135.393 37.6973 135.393 47.5762C135.393 56.874 133.118 65.1912 128.567 72.5277C124.016 79.8643 117.687 85.6391 109.58 89.8521C101.474 94.0652 92.1231 96.2081 81.5278 96.2807H52.1952V136.595L68.8348 139.864V158.932H4.51636ZM104.461 158.932L78.3279 90.3969L106.381 83.3146L128.993 136.704L142.22 139.864V158.932H104.461ZM52.1952 71.765H77.5812C86.541 71.765 93.2253 69.8401 97.6341 65.9902C102.114 62.0677 104.354 56.4018 104.354 48.9927C104.354 41.6561 102.15 35.8087 97.7408 31.4503C93.332 27.0193 86.7899 24.8038 78.1146 24.8038H52.1952V71.765Z" fill="#EDF6F9"/>
</g>
<defs>
<filter id="filter0_d_261_33" x="0.516357" y="0.288147" width="145.703" height="166.644" filterUnits="userSpaceOnUse" color-interpolation-filters="sRGB">
<feFlood flood-opacity="0" result="BackgroundImageFix"/>
<feColorMatrix in="SourceAlpha" type="matrix" values="0 0 0 0 0 0 0 0 0 0 0 0 0 0 0 0 0 0 127 0" result="hardAlpha"/>
<feOffset dy="4"/>
<feGaussianBlur stdDeviation="2"/>
<feComposite in2="hardAlpha" operator="out"/>
<feColorMatrix type="matrix" values="0 0 0 0 0 0 0 0 0 0 0 0 0 0 0 0 0 0 0.25 0"/>
<feBlend mode="normal" in2="BackgroundImageFix" result="effect1_dropShadow_261_33"/>
<feBlend mode="normal" in="SourceGraphic" in2="effect1_dropShadow_261_33" result="shape"/>
</filter>
</defs>
</svg>
